<?xml version="1.0" encoding="UTF-8"?>
<svg width="192px" height="63px" viewBox="0 0 192 63" version="1.1" xmlns="http://www.w3.org/2000/svg" xmlns:xlink="http://www.w3.org/1999/xlink">
    <!-- Generator: sketchtool 59.1 (101010) - https://sketch.com -->
    <title>AAF884CA-03F9-4F19-B223-7897BD58525E</title>
    <desc>Created with sketchtool.</desc>
    <defs>
        <polygon id="path-1" points="0.260011331 0.427066667 16.9339012 0.427066667 16.9339012 9.33333333 0.260011331 9.33333333"></polygon>
    </defs>
    <g id="desktop" stroke="none" stroke-width="1" fill="none" fill-rule="evenodd">
        <g id="Desktop" transform="translate(-101.000000, -10.000000)">
            <g id="organism-/-header-/desktop">
                <g id="Group" transform="translate(101.000000, 9.000000)">
                    <g id="Group-40" transform="translate(0.000000, 1.000000)">
                        <g id="Group-42">
                            <polygon id="Fill-1" fill="#2B3D74" points="0 14.9787234 16.3404255 14.9787234 16.3404255 0 0 0"></polygon>
                            <polygon id="Fill-2" fill="#2B3D74" points="0 38.1276596 16.3404255 38.1276596 16.3404255 23.1489362 0 23.1489362"></polygon>
                            <polygon id="Fill-3" fill="#2B3D74" points="0 61.2765957 16.3404255 61.2765957 16.3404255 46.2978723 0 46.2978723"></polygon>
                            <polygon id="Fill-4" fill="#2B3D74" points="24.5106383 14.9787234 40.8510638 14.9787234 40.8510638 0 24.5106383 0"></polygon>
                            <polygon id="Fill-5" fill="#2B3D74" points="24.5106383 61.2765957 40.8510638 61.2765957 40.8510638 46.2978723 24.5106383 46.2978723"></polygon>
                            <polygon id="Fill-6" fill="#2B3D74" points="49.0212766 14.9787234 65.3617021 14.9787234 65.3617021 0 49.0212766 0"></polygon>
                            <polygon id="Fill-7" fill="#2B3D74" points="49.0212766 38.1276596 65.3617021 38.1276596 65.3617021 23.1489362 49.0212766 23.1489362"></polygon>
                            <polygon id="Fill-8" fill="#2B3D74" points="49.0212766 61.2765957 65.3617021 61.2765957 65.3617021 46.2978723 49.0212766 46.2978723"></polygon>
                            <g id="Group-15" transform="translate(8.170213, 6.808511)" stroke="#2B3D74" stroke-width="3.307">
                                <line x1="0.155013226" y1="0.511281324" x2="48.9735802" y2="47.0746856" id="Stroke-9"></line>
                                <line x1="0.155013226" y1="23.793513" x2="24.5649592" y2="47.0752151" id="Stroke-11"></line>
                                <line x1="24.5646942" y1="0.511281324" x2="48.9733152" y2="23.7929835" id="Stroke-13"></line>
                            </g>
                            <polygon id="Fill-16" fill="#2B3D74" points="78.9787234 49.0212766 192 49.0212766 192 47.6595745 78.9787234 47.6595745"></polygon>
                            <polygon id="Fill-17" fill="#868A87" points="78.9787234 43.5744681 192 43.5744681 192 42.212766 78.9787234 42.212766"></polygon>
                            <g id="Group-41" transform="translate(78.978723, 0.000000)">
                                <path d="M10.8922796,53.9074667 L11.7359898,53.9074667 L12.9869627,56.5621333 L11.8978336,56.7341333 C11.2106608,55.9901333 10.2992946,55.4034667 9.16108168,54.9754667 C8.22451026,54.6168 7.1884447,54.4381333 6.05023183,54.4381333 C5.36438561,54.4381333 4.74752199,54.5034667 4.20229415,54.6328 C3.65706631,54.7621333 3.24715049,54.9301333 2.97387327,55.1354667 C2.70192264,55.3408 2.56528404,55.5488 2.56528404,55.7634667 C2.56528404,55.9568 2.67141111,56.1434667 2.88233867,56.3234667 C3.09193964,56.5048 3.41297404,56.6634667 3.84278869,56.8021333 C4.27260334,56.9394667 4.9756952,57.0848 5.9507377,57.2354667 L9.00719743,57.7128 C9.38129536,57.7701333 9.92519662,57.8808 10.6402278,58.0461333 C11.3539324,58.2114667 11.9097729,58.3848 12.3077494,58.5688 C12.705726,58.7514667 13.0188008,58.9768 13.2429943,59.2421333 C13.4698409,59.5074667 13.5826009,59.7941333 13.5826009,60.1021333 C13.5826009,60.7861333 13.0161476,61.3848 11.8792614,61.8968 C10.7450283,62.4101333 9.2738417,62.6661333 7.47100803,62.6661333 C6.54239613,62.6661333 5.71195178,62.5968 4.97702179,62.4528 C4.24341839,62.3114667 3.4514451,62.0594667 2.59977533,61.6981333 L2.06250702,62.5181333 L1.24134879,62.5181333 L0.15221969,59.4261333 L1.24267538,59.3088 C1.63932531,59.8808 2.1686341,60.3661333 2.82927513,60.7661333 C3.48858958,61.1648 4.21821321,61.4661333 5.01814603,61.6688 C5.81807885,61.8741333 6.63260415,61.9754667 7.45906874,61.9754667 C8.58401572,61.9754667 9.56701774,61.7968 10.410728,61.4381333 C11.1124933,61.1381333 11.4653658,60.7834667 11.4653658,60.3768 C11.4653658,60.0021333 11.2106608,59.6954667 10.7025774,59.4568 C10.1878611,59.2181333 9.26588217,58.9954667 7.93929375,58.7901333 L5.01151309,58.3461333 C3.37317639,58.0954667 2.21771787,57.7728 1.54646412,57.3821333 C0.875210382,56.9914667 0.53958351,56.5434667 0.53958351,56.0381333 C0.53958351,55.6421333 0.757144012,55.2768 1.19491819,54.9408 C1.63269237,54.6061333 2.30261953,54.3248 3.20867942,54.0994667 C4.11473932,53.8728 5.10702746,53.7608 6.18289067,53.7608 C7.08895056,53.7608 7.95521281,53.8421333 8.78300398,54.0061333 C9.36935607,54.1221333 9.90662438,54.2861333 10.3987887,54.4994667 L10.8922796,53.9074667 Z" id="Fill-18" fill="#868A87"></path>
                                <path d="M14.7787857,53.9074667 L28.0579358,53.9074667 L29.591472,56.1728 L28.5607128,56.3781333 C28.3020281,56.0061333 28.0207913,55.7154667 27.7170026,55.5034667 C27.4118873,55.2914667 27.0457489,55.1114667 26.6212406,54.9634667 C26.1940791,54.8154667 25.7642644,54.7154667 25.33047,54.6661333 C24.8966756,54.6168 24.1139884,54.5928 22.9810819,54.5928 L19.0172357,54.5928 L19.0172357,57.7474667 L20.9898727,57.7474667 C21.7168432,57.7474667 22.2687039,57.6821333 22.6401487,57.5528 C23.0115935,57.4234667 23.2662984,57.2621333 23.4082434,57.0674667 C23.5183502,56.9248 23.5727404,56.6728 23.5727404,56.3154667 L23.5727404,56.1728 L24.7202393,56.1728 L24.7202393,59.9501333 L23.5727404,59.9501333 L23.5727404,59.6234667 C23.5727404,59.3354667 23.5316161,59.1274667 23.4493676,58.9994667 C23.3671192,58.8728 23.2158881,58.7528 22.997001,58.6394667 C22.7781139,58.5261333 22.5419812,58.4488 22.2872762,58.4074667 C22.0325712,58.3674667 21.60143,58.3461333 20.9898727,58.3461333 L19.0172357,58.3461333 L19.0172357,61.1434667 C19.0172357,61.4354667 19.0437675,61.6128 19.0941778,61.6754667 C19.1445882,61.7394667 19.2281633,61.7861333 19.344903,61.8154667 C19.4629694,61.8434667 19.7826772,61.8581333 20.3080062,61.8581333 L22.7595417,61.8581333 C24.1272543,61.8581333 25.1964846,61.7714667 25.9659059,61.5994667 C26.7353272,61.4261333 27.4132138,61.1608 27.9995659,60.8048 C28.4598921,60.5261333 28.9003195,60.1314667 29.3221746,59.6234667 L30.3874251,59.8221333 L28.5607128,62.5181333 L14.7787857,62.5181333 L14.7787857,61.9994667 L15.248398,61.9994667 C15.7936258,61.9994667 16.1332325,61.9821333 16.2658913,61.9448 C16.4688593,61.8914667 16.6253968,61.8061333 16.7355036,61.6874667 C16.8124457,61.6048 16.8509168,61.4288 16.8509168,61.1554667 L16.8509168,55.2221333 C16.8509168,54.9528 16.8005064,54.7714667 16.6983591,54.6808 C16.5975384,54.5901333 16.4211022,54.5194667 16.1730301,54.4701333 C16.0390447,54.4408 15.5760653,54.4261333 14.7787857,54.4261333 L14.7787857,53.9074667 Z" id="Fill-20" fill="#868A87"></path>
                                <path d="M35.3409063,54.5806667 L35.3409063,57.822 L38.7064611,57.822 C39.8473272,57.822 40.6499132,57.7833333 41.1115659,57.71 C41.7682272,57.6113333 42.2855967,57.4313333 42.665001,57.166 C43.0444053,56.9033333 43.2327808,56.5673333 43.2327808,56.162 C43.2327808,55.8153333 43.0974688,55.5233333 42.822865,55.2873333 C42.5495878,55.0513333 42.1754898,54.874 41.7032244,54.7566667 C41.2296323,54.6393333 40.5238873,54.5806667 39.5859892,54.5806667 L35.3409063,54.5806667 Z M31.1024563,53.9073333 L39.5329257,53.9073333 C41.1327913,53.9073333 42.34264,53.9953333 43.1624716,54.17 C43.9836299,54.3446667 44.6124328,54.598 45.0541867,54.93 C45.4946141,55.2606667 45.7161543,55.6446667 45.7161543,56.0806667 C45.7161543,56.5286667 45.4999204,56.9273333 45.0701058,57.2753333 C44.6402911,57.622 44.0194478,57.8953333 43.2102288,58.0966667 C42.3983567,58.2953333 41.3251467,58.3993333 39.9866189,58.4073333 L44.3099706,61.186 C44.6615166,61.4166667 44.8910163,61.5566667 45.0011232,61.61 C45.2730738,61.738 45.5609435,61.8353333 45.8620791,61.9006667 C46.1618881,61.9673333 46.4988415,61.9993333 46.874266,61.9993333 L47.1674421,61.9993333 L47.1674421,62.518 L43.4463616,62.518 L37.4408958,58.4073333 L35.3409063,58.4073333 L35.3409063,61.0606667 C35.3409063,61.358 35.3608051,61.5433333 35.4006028,61.6166667 C35.4855044,61.758 35.6247962,61.8553333 35.8144983,61.914 C36.0068537,61.9713333 36.379625,61.9993333 36.934139,61.9993333 L37.3559941,61.9993333 L37.3559941,62.518 L31.1024563,62.518 L31.1024563,61.9993333 L31.6649298,61.9993333 C32.0867849,61.9993333 32.3693482,61.986 32.5139463,61.9566667 C32.6585445,61.9286667 32.785897,61.878 32.8999836,61.806 C33.0127436,61.7326667 33.0936655,61.642 33.1400961,61.5313333 C33.1560151,61.486 33.1666278,61.2766667 33.1745874,60.9073333 L33.1745874,55.2726667 C33.1745874,55.0206667 33.1281568,54.842 33.0352956,54.7326667 C32.9411078,54.6246667 32.8111022,54.5473333 32.6426254,54.498 C32.4741487,54.45 32.1836258,54.426 31.7710568,54.426 L31.1024563,54.426 L31.1024563,53.9073333 Z" id="Fill-22" fill="#868A87"></path>
                                <path d="M46.4652788,53.9074667 L52.4256406,53.9074667 L52.4256406,54.4261333 L51.9692942,54.4261333 C51.5474391,54.4261333 51.2821214,54.4354667 51.1733412,54.4514667 C51.0168037,54.4768 50.8987374,54.5168 50.8151623,54.5728 C50.7342404,54.6288 50.6944427,54.6914667 50.6944427,54.7621333 C50.6944427,54.8741333 50.7713849,55.0368 50.9265957,55.2474667 L55.2658664,61.2101333 L59.6502412,55.2474667 C59.8067786,55.0368 59.8850473,54.8768 59.8850473,54.7688 C59.8850473,54.6488 59.8067786,54.5608 59.6502412,54.5074667 C59.4937038,54.4528 59.1739959,54.4261333 58.6911178,54.4261333 L58.1525229,54.4261333 L58.1525229,53.9074667 L63.225397,53.9074667 L63.225397,54.4261333 C62.7889494,54.4221333 62.4665884,54.4421333 62.258314,54.4888 C62.0526928,54.5341333 61.8828895,54.5994667 61.7489041,54.6808 C61.5857337,54.7941333 61.4026645,54.9834667 61.1983699,55.2488 L55.6386378,62.5181333 L53.9830554,62.5181333 L48.4803667,55.2474667 C48.2999506,55.0061333 48.1752513,54.8581333 48.1049421,54.7994667 C47.9948353,54.7128 47.8727892,54.6421333 47.7361505,54.5888 C47.5995119,54.5341333 47.4376681,54.4928 47.2506192,54.4661333 C47.0622436,54.4394667 46.8009057,54.4261333 46.4652788,54.4261333 L46.4652788,53.9074667 Z" id="Fill-24" fill="#868A87"></path>
                                <path d="M63.2226112,53.9074667 L69.476149,53.9074667 L69.476149,54.4261333 L68.995924,54.4261333 C68.5435573,54.4261333 68.21589,54.4594667 68.0115954,54.5261333 C67.8086273,54.5928 67.661376,54.6861333 67.5671883,54.8088 C67.4730005,54.9314667 67.4265699,55.1661333 67.4265699,55.5194667 L67.4265699,61.0674667 C67.4265699,61.3474667 67.4769802,61.5461333 67.5791275,61.6634667 C67.6799483,61.7808 67.8232198,61.8661333 68.006289,61.9194667 C68.1893582,61.9741333 68.5196787,61.9994667 68.995924,61.9994667 L69.476149,61.9994667 L69.476149,62.5181333 L63.2226112,62.5181333 L63.2226112,61.9994667 L63.7386541,61.9994667 C64.1989802,61.9994667 64.5239944,61.9728 64.7163497,61.9168 C64.9073785,61.8608 65.0453437,61.7808 65.1315719,61.6754667 C65.2178002,61.5714667 65.260251,61.3688 65.260251,61.0674667 L65.260251,55.3888 C65.260251,55.0701333 65.2178002,54.8554667 65.1315719,54.7461333 C65.0453437,54.6368 64.9073785,54.5554667 64.7163497,54.5034667 C64.5239944,54.4514667 64.1989802,54.4261333 63.7386541,54.4261333 L63.2226112,54.4261333 L63.2226112,53.9074667 Z" id="Fill-26" fill="#868A87"></path>
                                <path d="M83.6124079,53.9074667 L84.4561182,53.9074667 L85.9405706,56.7781333 L84.8514415,56.9381333 C84.2650894,56.2754667 83.8206823,55.8314667 83.5168935,55.6048 C83.0167697,55.2394667 82.3932732,54.9488 81.649057,54.7354667 C80.9035143,54.5208 80.0810295,54.4141333 79.1829292,54.4141333 C78.129618,54.4141333 77.1598818,54.5634667 76.2737207,54.8621333 C75.3875597,55.1594667 74.6698753,55.5981333 74.1193411,56.1741333 C73.5701335,56.7514667 73.2942031,57.3994667 73.2942031,58.1208 C73.2942031,58.8621333 73.5741133,59.5234667 74.1312804,60.1034667 C74.6884476,60.6848 75.444603,61.1314667 76.3970935,61.4434667 C77.3482574,61.7581333 78.3763634,61.9141333 79.4761052,61.9141333 C80.5148239,61.9141333 81.5760947,61.7568 82.661244,61.4421333 C83.7463933,61.1288 84.6882711,60.6888 85.4828976,60.1234667 L86.419469,60.4634667 C85.9365908,60.8408 85.4125884,61.1621333 84.8514415,61.4261333 C83.9613007,61.8501333 83.0353419,62.1621333 82.0762185,62.3648 C81.1157685,62.5661333 80.0611307,62.6661333 78.9149583,62.6661333 C76.3771946,62.6661333 74.3156762,62.1701333 72.7317297,61.1794667 C71.4210603,60.3568 70.764399,59.3768 70.764399,58.2408 C70.764399,57.4061333 71.1278842,56.6501333 71.8535281,55.9728 C72.5804986,55.2954667 73.5807462,54.7581333 74.8569243,54.3581333 C76.1331024,53.9594667 77.5087746,53.7608 78.9852675,53.7608 C79.7719344,53.7608 80.5042112,53.8168 81.1807713,53.9301333 C81.8560048,54.0434667 82.5391979,54.2248 83.2356568,54.4754667 L83.6124079,53.9074667 Z" id="Fill-28" fill="#868A87"></path>
                                <path d="M87.194462,53.9074667 L93.4466732,53.9074667 L93.4466732,54.4261333 L92.9677748,54.4261333 C92.5140816,54.4261333 92.1864142,54.4594667 91.9821196,54.5261333 C91.7791516,54.5928 91.6319003,54.6861333 91.5377125,54.8088 C91.4435247,54.9314667 91.3970941,55.1661333 91.3970941,55.5194667 L91.3970941,61.0674667 C91.3970941,61.3474667 91.4475045,61.5461333 91.5496518,61.6634667 C91.6504725,61.7808 91.793744,61.8661333 91.9768133,61.9194667 C92.1598825,61.9741333 92.490203,61.9994667 92.9677748,61.9994667 L93.4466732,61.9994667 L93.4466732,62.5181333 L87.194462,62.5181333 L87.194462,61.9994667 L87.7091783,61.9994667 C88.1695045,61.9994667 88.4945186,61.9728 88.686874,61.9168 C88.8779027,61.8608 89.0158679,61.7808 89.1020961,61.6754667 C89.1883244,61.5714667 89.2307752,61.3688 89.2307752,61.0674667 L89.2307752,55.3888 C89.2307752,55.0701333 89.1883244,54.8554667 89.1020961,54.7461333 C89.0158679,54.6368 88.8779027,54.5554667 88.686874,54.5034667 C88.4945186,54.4514667 88.1695045,54.4261333 87.7091783,54.4261333 L87.194462,54.4261333 L87.194462,53.9074667 Z" id="Fill-30" fill="#868A87"></path>
                                <g id="Group-34" transform="translate(94.417073, 53.333333)">
                                    <mask id="mask-2" fill="white">
                                        <use xlink:href="#path-1"></use>
                                    </mask>
                                    <g id="Clip-33"></g>
                                    <path d="M8.83109915,1.0924 C7.61063779,1.0924 6.56263294,1.2404 5.68708458,1.53373333 C4.81153622,1.8284 4.10844435,2.26173333 3.58046216,2.83373333 C3.05380655,3.40573333 2.78848887,4.1124 2.78848887,4.95106667 C2.78848887,5.75373333 3.04982679,6.43373333 3.56852286,6.99106667 C4.08987211,7.5484 4.78765763,7.97506667 5.66320599,8.2724 C6.53875435,8.56706667 7.52573614,8.7164 8.62017159,8.7164 C9.70664751,8.7164 10.6697507,8.57106667 11.506828,8.28173333 C12.3425787,7.99106667 13.0363845,7.53373333 13.5829389,6.90973333 C14.1308199,6.28706667 14.4040971,5.59506667 14.4040971,4.83373333 C14.4040971,4.0604 14.1308199,3.35106667 13.5829389,2.70973333 C13.1146532,2.15906667 12.4924832,1.75106667 11.7177556,1.4884 C10.9430279,1.22573333 9.98125131,1.0924 8.83109915,1.0924 M8.83773209,0.427066667 C10.3288175,0.427066667 11.6766313,0.6164 12.879847,0.995066667 C14.1838834,1.40173333 15.1854577,1.93106667 15.8845698,2.5804 C16.5850085,3.23106667 16.9339012,3.9844 16.9339012,4.8404 C16.9339012,6.16573333 16.1525407,7.2444 14.5911461,8.0804 C13.0270983,8.91506667 11.0358891,9.33373333 8.61486523,9.33373333 C5.91127802,9.33373333 3.77149089,8.83106667 2.19285067,7.82706667 C0.903406717,7.0084 0.260011331,6.0284 0.260011331,4.88973333 C0.260011331,4.04173333 0.62349656,3.28173333 1.34914043,2.6084 C2.07611089,1.9364 3.10687009,1.40306667 4.44274464,1.0124 C5.77861918,0.621733333 7.24449939,0.427066667 8.83773209,0.427066667" id="Fill-32" fill="#868A87" mask="url(#mask-2)"></path>
                                </g>
                                <path d="M21.606073,15.4101333 C21.606073,16.7901333 20.4917387,17.9101333 19.1187197,17.9101333 L17.3065999,17.9101333 L17.3065999,1.64746667 L19.1187197,1.64746667 C20.4917387,1.64746667 21.606073,2.76746667 21.606073,4.14746667 L21.606073,15.4101333 Z M21.606073,33.7128 C21.606073,35.0928 20.4917387,36.2141333 19.1187197,36.2141333 L17.3065999,36.2141333 L17.3065999,19.5088 L19.1187197,19.5088 C20.4917387,19.5088 21.606073,20.6274667 21.606073,22.0101333 L21.606073,33.7128 Z M25.731763,18.9248 L24.5285473,18.9248 L24.5285473,17.6701333 L25.7304364,17.6701333 C30.4836028,17.6701333 34.3360155,13.7994667 34.3360155,9.0208 C34.3360155,4.2448 30.4836028,0.374133333 25.7304364,0.374133333 L1.72979865,0.374133333 L1.72979865,1.86613333 L4.4851228,1.86613333 L4.4851228,35.9821333 L1.72979865,35.9821333 L1.72979865,37.4741333 L25.7304364,37.4741333 C32.2333729,37.4741333 35.0815582,33.6888 35.0815582,27.8634667 C35.0815582,22.0381333 31.1415906,18.9248 25.731763,18.9248 L25.731763,18.9248 Z" id="Fill-35" fill="#2B3D74"></path>
                                <path d="M56.132394,18.4198667 C56.132394,19.8025333 55.0180597,20.9198667 53.6450407,20.9198667 L51.8329209,20.9198667 L51.8329209,1.79053333 L53.6450407,1.79053333 C55.0180597,1.79053333 56.132394,2.91186667 56.132394,4.29186667 L56.132394,18.4198667 Z M58.3716753,0.3732 L36.6527696,0.3732 L36.6527696,1.8652 L39.4067671,1.8652 L39.4067671,35.9812 L36.6527696,35.9812 L36.6527696,37.4745333 L55.6349233,37.4745333 L55.6349233,35.9812 L51.8315943,35.9812 L51.8315943,22.6932 L58.3716753,22.6932 C64.5044936,22.6932 69.4752204,17.6972 69.4752204,11.5318667 C69.4752204,5.3692 64.5044936,0.3732 58.3716753,0.3732 L58.3716753,0.3732 Z" id="Fill-37" fill="#2B3D74"></path>
                                <path d="M92.5189899,37.4752 L110.843156,37.4752 L110.843156,35.9818667 L108.089158,35.9818667 L108.089158,1.86586667 L110.843156,1.86586667 L110.843156,0.372533333 L95.8938309,0.372533333 L90.5808443,19.3672 L85.7494092,0.372533333 L70.7655929,0.372533333 L70.7655929,1.86586667 L73.5182639,1.86586667 L73.5182639,33.2312 C73.5182639,34.7512 72.2924962,35.9818667 70.781512,35.9818667 L70.7655929,35.9818667 L70.7655929,37.4752 L79.1098341,37.4752 L79.1098341,35.9818667 L78.1984679,35.9818667 C76.6861571,35.9818667 75.4630426,34.7512 75.4630426,33.2312 L75.4630426,6.84186667 L84.5912975,37.4752 L86.8610903,37.4752 L96.2798681,5.38586667 L96.2798681,35.9818667 L92.5189899,35.9818667 L92.5189899,37.4752 Z" id="Fill-39" fill="#2B3D74"></path>
                            </g>
                        </g>
                    </g>
                </g>
            </g>
        </g>
    </g>
</svg>